<svg width="0" height="0" xmlns="http://www.w3.org/2000/svg" xmlns:xlink="http://www.w3.org/1999/xlink">

  <defs>

    <symbol id="icon-menu" viewBox="0 0 24 24">
      <title>Menu Icon</title>
      <g transform="translate(4 5)">
        <rect width="16" height="2"/>
        <rect width="16" height="2" y="4"/>
        <rect width="16" height="2" y="8"/>
        <rect width="16" height="2" y="12"/>
      </g>
    </symbol>

    <symbol id="icon-match" viewBox="0 0 24 24">
      <path d="M19.53 20.624l-5.722-5.615c1.115-.946 1.753-2.28 1.753-3.73 0-1.853-1.641-4.322-1.829-4.598a.848.848 0 0 0-.618-.364.86.86 0 0 0-.68.239l-1.09 1.07V3.003a.828.828 0 0 0-.556-.778.853.853 0 0 0-.935.248c-.18.212-4.412 5.237-4.412 8.805 0 1.178.444 2.329 1.25 3.24a5.089 5.089 0 0 0 3.81 1.726c.629 0 1.24-.13 1.82-.354l6.016 5.904 1.193-1.17zm-11.566-7.19a3.231 3.231 0 0 1-.836-2.156c0-1.666 1.325-4.015 2.53-5.77v4.115c0 .335.205.637.52.765a.855.855 0 0 0 .92-.18l1.765-1.733c.472.847 1.011 2.006 1.011 2.803 0 1.053-.504 2.021-1.385 2.657-1.395 1.009-3.397.773-4.525-.502z"/>
      <path d="M10.501 11.278c-.891 0-1.715.276-2.397.742.125.37.318.667.498.871.155.176.34.315.537.44a2.54 2.54 0 0 1 2.738.006c.514-.324.845-.78 1.021-1.318a4.238 4.238 0 0 0-2.397-.74z"/>
    </symbol>

    <symbol id="icon-download" viewBox="0 0 24 24">
      <path d="M13 13.588V7.002h-2v6.586l-2.293-2.293-1.414 1.414L12 17.416l4.707-4.707-1.414-1.414zM3 5.002v1h2v-1h1v-2H5a2 2 0 0 0-2 2zM8 3.002h3v2H8zM13 3.002h3v2h-3zM19 3.002h-1v2h1v1h2v-1a2 2 0 0 0-2-2zm-14 15H3v1c0 1.102.896 2 2 2h1v-2H5v-1zM8 19.002h3v2H8zM13 19.002h3v2h-3zM19 19.002h-1v2h1c1.104 0 2-.898 2-2v-1h-2v1zM3 13.002h2v3H3zM3 8.002h2v3H3zM19 13.002h2v3h-2zM19 8.002h2v3h-2z"/>
    </symbol>

    <symbol id="icon-alert" viewBox="0 0 24 24">
      <title>Alert Icon</title>
      <path d="M12,22 C6.486,22 2,17.515 2,12 C2,6.486 6.486,2 12,2 C17.514,2 22,6.486 22,12 C22,17.515 17.514,22 12,22 Z M12,4 C7.589,4 4,7.589 4,12 C4,16.411 7.589,20 12,20 C16.411,20 20,16.411 20,12 C20,7.589 16.411,4 12,4 Z"/>
      <rect width="2" height="7" x="11" y="6"/>
      <circle cx="12" cy="16" r="1.25"/>
    </symbol>

    <symbol id="icon-group-circle" viewBox="0 0 24 24">
      <title>Group Circle Icon</title>
      <path d="M18.001 15.65L18.001 17.679C19.242 18.032 20.001 18.492 20.001 18.999 20.001 20.104 16.42 20.999 12.001 20.999 7.582 20.999 4.001 20.104 4.001 18.999 4.001 18.492 4.76 18.031 6.001 17.679L6.001 15.649C2.993 16.363 1.001 17.595 1.001 19 1.001 21.21 5.926 23 12.001 23 18.075 23 23.001 21.21 23.001 19 23.001 17.595 21.009 16.363 18.001 15.65zM17.001 5C17.826 5 18.501 5.676 18.501 6.5 18.501 7.324 17.826 8 17.001 8 16.176 8 15.501 7.324 15.501 6.5 15.501 5.676 16.176 5 17.001 5zM19.001 15L15.001 15 15.001 11C15.001 9.896 15.897 9 17.001 9 18.105 9 19.001 9.896 19.001 11L19.001 15zM12.001 3C12.826 3 13.501 3.676 13.501 4.5 13.501 5.324 12.826 6 12.001 6 11.176 6 10.501 5.324 10.501 4.5 10.501 3.676 11.176 3 12.001 3zM14.001 13L10.001 13 10.001 9C10.001 7.896 10.897 7 12.001 7 13.105 7 14.001 7.896 14.001 9L14.001 13zM7.001 5C7.826 5 8.501 5.676 8.501 6.5 8.501 7.324 7.826 8 7.001 8 6.176 8 5.501 7.324 5.501 6.5 5.501 5.676 6.176 5 7.001 5zM9.001 15L5.001 15 5.001 11C5.001 9.896 5.897 9 7.001 9 8.105 9 9.001 9.896 9.001 11L9.001 15z"/>
    </symbol>

    <symbol id="icon-scale" viewBox="0 0 24 24">
      <title>Scale Icon</title>
      <path d="M23.885,12.558 L23.895,12.553 L20.618,6 L22,6 L22,4 L13,4 L13,2 L11,2 L11,4 L2,4 L2,6 L3.382,6 L0.106,12.553 L0.116,12.558 C0.047,12.692 0,12.839 0,13 C0,15.757 2.243,18 5,18 C7.757,18 10,15.757 10,13 C10,12.839 9.953,12.692 9.885,12.558 L9.895,12.553 L6.618,6 L11,6 L11,20 L8,20 L8,22 L16,22 L16,20 L13,20 L13,6 L17.382,6 L14.106,12.553 L14.116,12.558 C14.047,12.692 14,12.839 14,13 C14,15.757 16.243,18 19,18 C21.757,18 24,15.757 24,13 C24,12.839 23.953,12.692 23.885,12.558 Z M5,7.236 L7.382,12 L2.618,12 L5,7.236 Z M5,16 C3.696,16 2.584,15.164 2.172,14 L7.828,14 C7.416,15.164 6.304,16 5,16 Z M21.382,12 L16.618,12 L19,7.236 L21.382,12 Z M19,16 C17.696,16 16.584,15.164 16.172,14 L21.828,14 C21.416,15.164 20.304,16 19,16 Z"/>
    </symbol>

    <symbol id="icon-thumbs-up" viewBox="0 0 24 24">
      <title>Thumbs Up Icon</title>
      <path d="M22.768,7.359 C22.578,7.132 22.297,7 22,7 L16,7 L16,3 C16,2.448 15.553,2 15,2 L12,2 C11.6,2 11.238,2.238 11.081,2.605 L8.341,9 L8,9 C8,8.448 7.553,8 7,8 L3,8 C2.447,8 2,8.448 2,9 L2,19 C2,19.552 2.447,20 3,20 L7,20 C7.553,20 8,19.552 8,19 L8,18.478 L11.629,19.929 C11.746,19.976 11.873,20 12,20 L20,20 C20.483,20 20.897,19.654 20.984,19.179 L22.984,8.179 C23.037,7.887 22.957,7.587 22.768,7.359 Z M6,18 L4,18 L4,10 L6,10 L6,18 Z M19.166,18 L12.192,18 L8,16.323 L8,11 L9,11 C9.4,11 9.762,10.762 9.919,10.394 L12.659,4 L14,4 L14,8 C14,8.552 14.447,9 15,9 L20.802,9 L19.166,18 Z"/>
    </symbol>

    <symbol id="icon-people-network" viewBox="0 0 24 24">
      <title>People Network Icon</title>
      <path d="M2 4C2.178 4 2.348 3.969 2.512 3.926L5.793 7.207 7.207 5.793 3.926 2.512C3.969 2.348 4 2.178 4 2 4 .896 3.105 0 2 0 .895 0 0 .896 0 2 0 3.104.895 4 2 4zM2 14C2.738 14 3.377 13.595 3.723 13L6 13 6 11 3.723 11C3.376 10.405 2.738 10 2 10 .895 10 0 10.896 0 12 0 13.104.895 14 2 14zM5.793 16.793L2.512 20.075C2.348 20.031 2.178 20 2 20 .895 20 0 20.896 0 22 0 23.104.895 24 2 24 3.105 24 4 23.104 4 22 4 21.823 3.969 21.652 3.926 21.488L7.207 18.206 5.793 16.793zM22 10C21.262 10 20.624 10.405 20.277 11L18 11 18 13 20.277 13C20.623 13.595 21.261 14 22 14 23.105 14 24 13.104 24 12 24 10.896 23.105 10 22 10zM18.207 7.207L21.488 3.926C21.652 3.969 21.822 4 22 4 23.105 4 24 3.104 24 2 24 .896 23.105 0 22 0 20.895 0 20 .896 20 2 20 2.178 20.031 2.348 20.074 2.512L16.793 5.793 18.207 7.207zM22 20C21.822 20 21.652 20.031 21.488 20.075L18.207 16.793 16.793 18.207 20.074 21.489C20.031 21.652 20 21.823 20 22 20 23.104 20.895 24 22 24 23.105 24 24 23.104 24 22 24 20.896 23.105 20 22 20zM15 5C15 3.346 13.654 2 12 2 10.346 2 9 3.346 9 5 9 6.654 10.346 8 12 8 13.654 8 15 6.654 15 5zM12 6C11.449 6 11 5.552 11 5 11 4.448 11.449 4 12 4 12.551 4 13 4.448 13 5 13 5.552 12.551 6 12 6zM17 13C17 10.243 14.757 8 12 8 9.243 8 7 10.243 7 13L7 16C7 16.552 7.447 17 8 17L9 17 9 21C9 21.552 9.447 22 10 22L14 22C14.553 22 15 21.552 15 21L15 17 16 17C16.553 17 17 16.552 17 16L17 13zM15 15L14 15C13.447 15 13 15.448 13 16L13 20 11 20 11 16C11 15.448 10.553 15 10 15L9 15 9 13C9 11.346 10.346 10 12 10 13.654 10 15 11.346 15 13L15 15z"/>
    </symbol>

    <symbol id="icon-wave" viewBox="0 0 24 24">
      <title>Wave Icon</title>
      <polygon points="12.067 21.959 7.012 8.815 4.693 14.999 0 14.999 0 12.999 3.307 12.999 6.988 3.183 11.933 16.039 14.815 7.393 17.618 12.999 24 12.999 24 14.999 16.382 14.999 15.185 12.605"/>
    </symbol>

    <symbol id="icon-strategy" viewBox="0 0 24 24">
      <title>Strategy Icon</title>
      <polygon points="14.001 2 14.001 4 18.587 4 3.294 19.293 4.708 20.707 20.001 5.414 20.001 10 22.001 10 22.001 2"/>
      <polygon points="3.708 9.707 6.001 7.414 8.294 9.707 9.708 8.293 7.415 6 9.708 3.707 8.294 2.293 6.001 4.586 3.708 2.293 2.294 3.707 4.587 6 2.294 8.293"/>
      <path d="M17.501,13 C15.02,13 13.001,15.019 13.001,17.5 C13.001,19.981 15.02,22 17.501,22 C19.982,22 22.001,19.981 22.001,17.5 C22.001,15.019 19.982,13 17.501,13 Z M17.501,20 C16.123,20 15.001,18.879 15.001,17.5 C15.001,16.121 16.123,15 17.501,15 C18.879,15 20.001,16.121 20.001,17.5 C20.001,18.879 18.879,20 17.501,20 Z"/>
    </symbol>

      <symbol id="icon-toolbox" viewBox="0 0 24 24">
      <title>Toolbox Icon</title>
      <path d="M20,6.999 L17,6.999 L17,4.999 C17,3.897 16.103,2.999 15,2.999 L9,2.999 C7.897,2.999 7,3.897 7,4.999 L7,6.999 L4,6.999 C2.346,6.999 1,8.345 1,9.999 L1,13.999 L2,13.999 L2,18.999 C2,20.653 3.346,21.999 5,21.999 L19,21.999 C20.654,21.999 22,20.653 22,18.999 L22,13.999 L23,13.999 L23,9.999 C23,8.345 21.654,6.999 20,6.999 Z M9,4.999 L15,4.999 L15,6.999 L9,6.999 L9,4.999 Z M20,18.999 C20,19.552 19.551,19.999 19,19.999 L5,19.999 C4.449,19.999 4,19.552 4,18.999 L4,13.999 L8,13.999 C8,15.102 8.897,15.999 10,15.999 L14,15.999 C15.103,15.999 16,15.102 16,13.999 L20,13.999 L20,18.999 Z M10,13.999 L10,11.999 L14,11.999 L13.997,13.999 L10,13.999 Z M21,11.999 L16,11.999 C16,10.897 15.103,9.999 14,9.999 L10,9.999 C8.897,9.999 8,10.897 8,11.999 L3,11.999 L3,9.999 C3,9.448 3.449,8.999 4,8.999 L20,8.999 C20.551,8.999 21,9.448 21,9.999 L21,11.999 Z"/>
    </symbol>

    <symbol id="icon-trophy" viewBox="0 0 24 24">
      <title>Trophy Icon</title>
      <path d="M21,2.001 L17.722,2.001 C17.375,1.406 16.738,1.001 16,1.001 L8,1.001 C7.263,1.001 6.625,1.406 6.278,2.001 L3,2.001 C2.447,2.001 2,2.448 2,3.001 L2,6.04 C2,6.956 2.41,7.81 3.126,8.383 L7.305,11.726 C8.207,12.86 9.51,13.659 11,13.911 L11,16.001 L9,16.001 C8.447,16.001 8,16.448 8,17.001 L8,19.001 L7,19.001 L7,21.001 L9,21.001 L15,21.001 L17,21.001 L17,19.001 L16,19.001 L16,17.001 C16,16.448 15.553,16.001 15,16.001 L13,16.001 L13,13.911 C14.49,13.659 15.793,12.86 16.695,11.725 L20.875,8.381 C21.59,7.81 22,6.956 22,6.04 L22,3.001 C22,2.448 21.553,2.001 21,2.001 Z M14,19.001 L10,19.001 L10,18.001 L14,18.001 L14,19.001 Z M4.376,6.821 C4.137,6.631 4,6.345 4,6.04 L4,4.001 L6,4.001 L6,8.001 C6,8.043 6.006,8.084 6.006,8.126 L4.376,6.821 Z M12,12.001 C9.795,12.001 8,10.207 8,8.001 L8,3.001 L16,3.001 L16,8.001 C16,10.207 14.205,12.001 12,12.001 Z M20,6.04 C20,6.345 19.863,6.631 19.625,6.821 L17.994,8.126 C17.994,8.084 18,8.043 18,8.001 L18,4.001 L20,4.001 L20,6.04 Z"/>
    </symbol>

    <symbol id="icon-checkbox" viewBox="0 0 24 24">
      <title>Checkbox Icon</title>
      <path d="M18.042,22 L4.042,22 C2.939,22 2.042,21.103 2.042,20 L2.042,8 C2.042,6.898 2.939,6 4.042,6 L14.042,6 L14.042,8 L4.042,8 L4.042,20 L18.042,20 L18.042,15 L20.042,15 L20.042,20 C20.042,21.103 19.145,22 18.042,22 Z"/>
      <polygon points="11.084 17.811 6.158 12.884 7.925 11.116 10.999 14.19 20.117 4.159 21.966 5.841"/>
    </symbol>

    <symbol id="icon-chat" viewBox="0 0 24 24">
      <title>Chat Icon</title>
      <path d="M15.001,17 C14.849,17 14.695,16.965 14.554,16.895 C14.215,16.726 14.001,16.379 14.001,16 L14.001,14 L13.001,14 L13.001,12 L15.001,12 C15.553,12 16.001,12.448 16.001,13 L16.001,14 L18.401,12.2 C18.574,12.07 18.785,12 19.001,12 C20.655,12 22.001,10.654 22.001,9 L22.001,7 C22.001,5.346 20.655,4 19.001,4 L13.001,4 C11.664,4 10.476,4.898 10.114,6.184 L8.189,5.641 C8.793,3.497 10.772,2 13.001,2 L19.001,2 C21.758,2 24.001,4.243 24.001,7 L24.001,9 C24.001,11.64 21.945,13.809 19.351,13.988 L15.601,16.8 C15.424,16.932 15.213,17 15.001,17 Z"/>
      <path d="M8.001 16C5.795 16 4.001 14.206 4.001 12 4.001 9.795 5.795 8 8.001 8 10.207 8 12.001 9.795 12.001 12 12.001 14.206 10.207 16 8.001 16zM8.001 10C6.898 10 6.001 10.896 6.001 12 6.001 13.103 6.898 14 8.001 14 9.104 14 10.001 13.103 10.001 12 10.001 10.896 9.104 10 8.001 10zM16.001 24L.001 24 .001 23C.001 19.467 3.291 17 8.001 17 12.711 17 16.001 19.467 16.001 23L16.001 24zM2.16 22L13.843 22C13.245 20.192 11.01 19 8.002 19 4.994 19 2.758 20.192 2.16 22z"/>
    </symbol>

    <symbol id="icon-calendar" viewBox="0 0 24 24">
      <title>Calendar Icon</title>
      <path d="M21,3 L18,3 L18,1 L16,1 L16,7 L18,7 L18,5 L21,5 L21,20 L3,20 L3,5 L5,5 L5,3 L3,3 C1.896,3 1,3.895 1,5 L1,20 C1,21.104 1.896,22 3,22 L21,22 C22.104,22 23,21.104 23,20 L23,5 C23,3.895 22.104,3 21,3 Z"/>
      <polygon points="8 5 15 5 15 3 8 3 8 1 6 1 6 7 8 7"/>
      <rect width="4" height="4" x="5" y="9"/>
      <rect width="4" height="4" x="10" y="9"/>
      <rect width="4" height="4" x="15" y="9"/>
      <rect width="4" height="4" x="5" y="14"/>
      <rect width="4" height="4" x="10" y="14"/>
    </symbol>

    <symbol id="icon-bell" viewBox="0 0 24 24">
      <title>Bell Icon</title>
      <path d="M8.555 19C9.248 20.19 10.524 21 12 21 13.476 21 14.752 20.19 15.445 19L8.555 19zM21 18L3 18 3 15.279 3.684 15.052C5.069 14.589 6 13.298 6 11.838L6 9C6 5.691 8.691 3 12 3 15.309 3 18 5.691 18 9L18 11.838C18 13.298 18.931 14.589 20.316 15.052L21 15.279 21 18zM6.035 16L17.966 16C16.745 14.998 16 13.486 16 11.838L16 9C16 6.794 14.206 5 12 5 9.794 5 8 6.794 8 9L8 11.838C8 13.486 7.255 14.998 6.035 16z"/>
    </symbol>

    <symbol id="icon-close" viewBox="0 0 24 24">
      <title>Close Icon</title>
      <polygon points="20.749 4.707 19.334 3.293 12.042 10.586 4.749 3.293 3.334 4.707 10.627 12 3.334 19.293 4.749 20.707 12.042 13.414 19.334 20.707 20.749 19.293 13.456 12"/>
    </symbol>

    <symbol id="icon-group" viewBox="0 0 24 24">
      <title>Group Icon</title>
      <g>
        <path d="M20.372 19.059C21.062 18.418 21.501 17.513 21.501 16.5 21.501 14.57 19.931 13 18.001 13 16.071 13 14.501 14.57 14.501 16.5 14.501 17.513 14.94 18.418 15.63 19.059 14.152 19.593 13.001 20.621 13.001 22L15.001 22C15.001 21.402 16.414 20.643 18.001 20.643 19.588 20.643 21.001 21.403 21.001 22L23.001 22C23.001 20.62 21.85 19.593 20.372 19.059zM18.001 15C18.828 15 19.501 15.673 19.501 16.5 19.501 17.327 18.828 18 18.001 18 17.174 18 16.501 17.327 16.501 16.5 16.501 15.673 17.174 15 18.001 15zM8.372 19.059C9.062 18.418 9.501 17.513 9.501 16.5 9.501 14.57 7.931 13 6.001 13 4.071 13 2.501 14.57 2.501 16.5 2.501 17.513 2.94 18.418 3.63 19.059 2.152 19.593 1.001 20.62 1.001 22L3.001 22C3.001 21.402 4.414 20.643 6.001 20.643 7.588 20.643 9.001 21.403 9.001 22L11.001 22C11.001 20.62 9.85 19.593 8.372 19.059zM6.001 15C6.828 15 7.501 15.673 7.501 16.5 7.501 17.327 6.828 18 6.001 18 5.174 18 4.501 17.327 4.501 16.5 4.501 15.673 5.174 15 6.001 15zM15.001 11L17.001 11C17.001 9.62 15.85 8.593 14.372 8.059 15.062 7.418 15.501 6.513 15.501 5.5 15.501 3.57 13.931 2 12.001 2 10.071 2 8.501 3.57 8.501 5.5 8.501 6.513 8.94 7.418 9.63 8.059 8.152 8.593 7.001 9.62 7.001 11L9.001 11C9.001 10.402 10.414 9.643 12.001 9.643 13.588 9.643 15.001 10.402 15.001 11zM12.001 4C12.828 4 13.501 4.673 13.501 5.5 13.501 6.327 12.828 7 12.001 7 11.174 7 10.501 6.327 10.501 5.5 10.501 4.673 11.174 4 12.001 4z"/>
      </g>
    </symbol>

    <symbol id="icon-stethoscope" viewBox="0 0 24 24">
      <title>Stethoscope Icon</title>
      <path d="M20,5 C20,3.346 18.654,2 17,2 C15.346,2 14,3.346 14,5 C14,6.302 14.838,7.401 16,7.815 L16,16.999 C16,17.551 15.551,17.999 15,17.999 C14.449,17.999 14,17.551 14,16.999 C14,15.345 12.654,13.999 11,13.999 C9.346,13.999 8,15.345 8,16.999 C8,17.275 7.775,17.499 7.5,17.499 C7.225,17.499 7,17.275 7,16.999 L7,13.91 C9.833,13.432 12,10.968 12,7.999 L12,2 C12,1.448 11.553,1 11,1 L9,1 L9,0 L7,0 L7,4 L9,4 L9,3 L10,3 L10,7.999 C10,10.206 8.205,11.999 6,11.999 C3.795,11.999 2,10.206 2,7.999 L2,3 L3,3 L3,4 L5,4 L5,0 L3,0 L3,1 L1,1 C0.447,1 0,1.448 0,2 L0,7.999 C0,10.967 2.167,13.432 5,13.91 L5,16.999 C5,18.378 6.121,19.499 7.5,19.499 C8.879,19.499 10,18.378 10,16.999 C10,16.449 10.449,15.999 11,15.999 C11.551,15.999 12,16.449 12,16.999 C12,18.654 13.346,19.999 15,19.999 C16.654,19.999 18,18.654 18,16.999 L18,7.815 C19.162,7.401 20,6.302 20,5 Z M17,5.999 C16.449,5.999 16,5.551 16,5 C16,4.449 16.449,4 17,4 C17.551,4 18,4.449 18,5 C18,5.551 17.551,5.999 17,5.999 Z" transform="translate(2 2)"/>
    </symbol>

    <symbol id="icon-clock" viewBox="0 0 24 24">
      <title>Clock Icon</title>
      <g transform="translate(3 3)">
        <path d="M9,0 C4.038,0 0,4.038 0,9 C0,13.962 4.038,18 9,18 C13.962,18 18,13.962 18,9 C18,4.038 13.962,0 9,0 Z M9,16 C5.14,16 2,12.86 2,9 C2,5.14 5.14,2 9,2 C12.859,2 16,5.14 16,9 C16,12.86 12.859,16 9,16 Z"/>
        <polygon points="10 4 8 4 8 9.535 11.445 11.832 12.555 10.168 10 8.465"/>
      </g>
    </symbol>

    <symbol id="icon-link" viewBox="0 0 24 24">
      <title>Link Icon</title>
      <g transform="translate(1 1)">
        <path d="M2.514 15.227L3.928 13.813 3.221 13.106C2.831 12.716 2.831 12.082 3.221 11.691L11.707 3.206C11.895 3.017 12.146 2.913 12.414 2.913 12.682 2.913 12.932 3.017 13.122 3.206L13.829 3.913 15.242 2.5 14.536 1.793C13.402.659 11.425.659 10.293 1.793L1.808 10.277C.638 11.447.638 13.35 1.808 14.52L2.514 15.227zM20.192 7.451L19.484 6.744 18.07 8.158 18.778 8.865C18.967 9.054 19.07 9.304 19.07 9.572 19.07 9.838 18.966 10.089 18.778 10.278L10.293 18.764C9.915 19.141 9.256 19.141 8.878 18.764L8.171 18.057 6.757 19.47 7.464 20.177C8.031 20.744 8.784 21.056 9.586 21.056 10.387 21.056 11.14 20.744 11.707 20.177L20.192 11.692C20.758 11.126 21.07 10.373 21.07 9.572 21.07 8.771 20.758 8.017 20.192 7.451z"/>
        <rect width="2" height="10" x="14.949" y="1.036" transform="rotate(45 15.949 6.036)"/>
        <rect width="1.999" height="10.001" x="5.05" y="10.934" transform="rotate(44.992 6.05 15.934)"/>
      </g>
    </symbol>

    <symbol id="icon-graph" viewBox="0 0 24 24">
      <title>Graph Icon</title>
      <g transform="translate(3 3)">
        <path d="M2,16 L2,0 L0,0 L0,17 C0,17.552 0.448,18 1,18 L18,18 L18,16 L2,16 Z"/>
        <path d="M8,9.414 L10.293,11.706 C10.684,12.097 11.316,12.097 11.707,11.706 L17.707,5.706 L16.293,4.292 L11,9.586 L8.707,7.293 C8.316,6.902 7.684,6.902 7.293,7.293 L3.293,11.293 L4.707,12.707 L8,9.414 Z"/>
      </g>
    </symbol>

    <symbol id="icon-stapler" viewBox="0 0 24 24">
      <title>Stapler Icon</title>
      <g transform="translate(2 3)">
        <rect width="2" height="8.602" x="3.5" y="6.199" transform="rotate(-54.471 4.5 10.5)"/>
        <path d="M18.178,9.653 L6.401,0.803 C5.98,0.486 5.44,0.345 4.919,0.421 C4.397,0.495 3.917,0.778 3.6,1.201 L1.808,3.589 C1.489,4.015 1.352,4.561 1.431,5.086 C1.511,5.613 1.803,6.094 2.232,6.406 L12.056,13.55 C12.129,14.074 12.301,14.561 12.557,15 L0,15 L0,17 L16,17 C18.206,17 20,15.206 20,13 C20,11.599 19.272,10.368 18.178,9.653 Z M5.199,2.402 L14.418,9.329 C13.519,9.718 12.798,10.431 12.384,11.316 L3.408,4.79 L5.199,2.402 Z M16,15 C14.897,15 14,14.103 14,13 C14,11.898 14.897,11 16,11 C17.103,11 18,11.898 18,13 C18,14.103 17.103,15 16,15 Z"/>
      </g>
    </symbol>

    <symbol id="icon-doctor" viewBox="0 0 24 24">
      <title>Doctor Icon</title>
      <g transform="translate(4 1)">
        <path d="M8 9C6.346 9 5 7.654 5 6L3 6C3 8.757 5.243 11 8 11 10.757 11 13 8.757 13 6L11 6C11 7.654 9.654 9 8 9zM8 6C8.883 6 9.67 5.609 10.22 5L14 5 14 3 11 3C11 1.346 9.654 0 8 0 6.346 0 5 1.346 5 3L2 3 2 5 5.78 5C6.33 5.609 7.117 6 8 6zM8 2C8.551 2 9 2.449 9 3 9 3.551 8.551 4 8 4 7.449 4 7 3.551 7 3 7 2.449 7.449 2 8 2z"/>
        <polygon points="11 16 9 16 9 18 7 18 7 20 9 20 9 22 11 22 11 20 13 20 13 18 11 18"/>
        <path d="M8,12 C3.289,12 0,14.467 0,18 L0,22 L6,22 L6,20 L2,20 L2,18 C2,15.645 4.467,14 8,14 C11.533,14 14,15.645 14,18 L14,22 L16,22 L16,18 C16,14.467 12.711,12 8,12 Z"/>
      </g>
    </symbol>

    <symbol id="icon-search" viewBox="0 0 24 24">
      <title>Search Icon</title>
      <path d="M19.707,18.293 L14.314,12.9 C15.403,11.504 16,9.799 16,8 C16,5.863 15.167,3.854 13.656,2.344 C12.146,0.832 10.137,0 8,0 C5.863,0 3.854,0.832 2.344,2.344 C0.833,3.854 0,5.863 0,8 C0,10.137 0.833,12.146 2.344,13.656 C3.854,15.168 5.863,16 8,16 C9.799,16 11.504,15.404 12.9,14.314 L18.293,19.706 L19.707,18.293 Z M8,14 C6.397,14 4.891,13.376 3.758,12.243 C2.624,11.11 2,9.603 2,8 C2,6.398 2.624,4.891 3.758,3.758 C4.891,2.624 6.397,2 8,2 C9.603,2 11.109,2.624 12.242,3.758 C13.376,4.891 14,6.398 14,8 C14,9.603 13.376,11.11 12.242,12.243 C11.109,13.376 9.603,14 8,14 Z" transform="translate(2 2)"/>
    </symbol>

    <symbol id="icon-megaphone" viewBox="0 0 24 24">
      <title>Megaphone Icon</title>
      <g transform="translate(2 3)">
        <path d="M17.615.211911004C17.372.0229110035 17.054-.0450889965 16.758.0299110035L4.877 3.000911 2 3.000911C.896 3.000911 0 3.896911 0 5.000911L0 9.000911C0 10.102911.896 11.000911 2 11.000911L4 11.000911 4 13.000911C4 13.217911 4.07 13.426911 4.2 13.600911L7.2 17.600911 8.8 16.400911 6 12.666911 6 11.281911 16.758 13.970911C16.838 13.990911 16.919 14.000911 17 14.000911 17.221 14.000911 17.438 13.926911 17.615 13.787911 17.857 13.598911 18 13.308911 18 13.000911L18 1.000911C18 .691911004 17.857.400911004 17.615.211911004zM2 5.000911L4 5.000911 4 9.000911 2 9.000911 2 5.000911zM16 11.719911L6 9.219911 6 4.781911 16 2.281911 16 11.719911zM19 4L19 9.631C20.162 9.217 21 8.117 21 6.817 21 5.513 20.162 4.414 19 4z"/>
      </g>
    </symbol>

    <symbol id="icon-coin-star" viewBox="0 0 24 24">
      <title>Star Icon</title>
      <g>
        <path d="M12,0 C5.383,0 0,5.383 0,12 C0,18.617 5.383,24 12,24 C18.617,24 24,18.617 24,12 C24,5.383 18.617,0 12,0 Z M12,22 C6.486,22 2,17.514 2,12 C2,6.486 6.486,2 12,2 C17.514,2 22,6.486 22,12 C22,17.514 17.514,22 12,22 Z"/>
        <path d="M12,3 C7.037,3 3,7.037 3,12 C3,16.963 7.037,21 12,21 C16.963,21 21,16.963 21,12 C21,7.037 16.963,3 12,3 Z M12,19 C8.141,19 5,15.86 5,12 C5,8.14 8.141,5 12,5 C15.859,5 19,8.14 19,12 C19,15.86 15.859,19 12,19 Z"/>
        <polygon points="13.715 9.786 12 5.5 10.285 9.786 6 9.786 9.709 12.916 7.715 17.5 12 14.666 16.285 17.5 14.292 12.916 18 9.786"/>
      </g>
    </symbol>

    <symbol id="icon-newspaper" viewBox="0 0 24 24">
      <title>Newspaper Icon</title>
      <g transform="translate(1 2)">
        <path d="M19,20.001 L1,20.001 C0.447,20.001 0,19.553 0,19.001 L0,1.001 C0,0.449 0.447,0.001 1,0.001 L17,0.001 C17.553,0.001 18,0.449 18,1.001 L18,4.001 L21,4.001 C21.553,4.001 22,4.449 22,5.001 L22,17.001 C22,17.266 21.895,17.521 21.707,17.708 L19.707,19.708 C19.52,19.896 19.266,20.001 19,20.001 Z M18,18.001 L18.586,18.001 L20,16.587 L20,6.001 L18,6.001 L18,18.001 Z M2,18.001 L16,18.001 L16,2.001 L2,2.001 L2,18.001 Z"/>
        <rect width="9" height="3" x="4" y="4.001"/>
        <rect width="4" height="2" x="4" y="8.001"/>
        <rect width="4" height="2" x="9" y="8.001"/>
        <rect width="4" height="2" x="4" y="11.001"/>
        <rect width="4" height="2" x="9" y="11.001"/>
        <rect width="4" height="2" x="4" y="14.001"/>
        <rect width="4" height="2" x="9" y="14.001"/>
      </g>
    </symbol>

    <symbol id="icon-location-pin" viewBox="0 0 24 24">
      <title>Location Pin Icon</title>
      <g transform="translate(5 2)">
        <path d="M7,10 C5.346,10 4,8.654 4,7 C4,5.346 5.346,4 7,4 C8.654,4 10,5.346 10,7 C10,8.654 8.654,10 7,10 Z M7,6 C6.449,6 6,6.449 6,7 C6,7.552 6.449,8 7,8 C7.551,8 8,7.552 8,7 C8,6.449 7.551,6 7,6 Z"/>
        <path d="M7,20.667 C4.641,17.52 0,10.936 0,7 C0,3.14 3.14,0 7,0 C10.86,0 14,3.14 14,7 C14,10.936 9.359,17.521 7,20.667 Z M7,2 C4.243,2 2,4.243 2,7 C2,9.591 5.107,14.583 7,17.291 C8.892,14.582 12,9.589 12,7 C12,4.243 9.757,2 7,2 Z"/>
      </g>
    </symbol>

    <symbol id="icon-list-bullets" viewBox="0 0 24 24">
      <title>Bulleted List Icon</title>
      <g transform="translate(2 2)">
        <path d="M5 0L1 0C.448 0 0 .448 0 1L0 5C0 5.552.448 6 1 6L5 6C5.553 6 6 5.552 6 5L6 1C6 .448 5.553 0 5 0zM4 4L2 4 2 2 4 2 4 4zM5 7L1 7C.448 7 0 7.448 0 8L0 12C0 12.552.448 13 1 13L5 13C5.553 13 6 12.552 6 12L6 8C6 7.448 5.553 7 5 7zM4 11L2 11 2 9 4 9 4 11zM5 14L1 14C.448 14 0 14.448 0 15L0 19C0 19.552.448 20 1 20L5 20C5.553 20 6 19.552 6 19L6 15C6 14.448 5.553 14 5 14zM4 18L2 18 2 16 4 16 4 18z"/>
        <rect width="12" height="2" x="8" y="2"/>
        <rect width="12" height="2" x="8" y="9"/>
        <rect width="12" height="2" x="8" y="16"/>
      </g>
    </symbol>

    <symbol id="icon-logout" viewBox="0 0 24 24">
      <title>Logout Icon</title>
      <path d="M18,22 L7,22 C5.897,22 5,21.103 5,20 L5,17 L7,17 L7,20 L18,20 L18,4 L7,4 L7,7 L5,7 L5,4 C5,2.898 5.897,2 7,2 L18,2 C19.103,2 20,2.898 20,4 L20,20 C20,21.103 19.103,22 18,22 Z"/>
      <polygon points="11.707 7.292 10.293 8.708 12.59 11 4 11 4 13 12.582 13 10.292 15.294 11.708 16.706 16.414 11.991"/>
    </symbol>

  </defs>

</svg>