<svg xmlns="http://www.w3.org/2000/svg" width="24" height="24" viewBox="0 0 24 24">
    <g fill="#757575">
        <path d="M13 13.588V7.002h-2v6.586l-2.293-2.293-1.414 1.414L12 17.416l4.707-4.707-1.414-1.414zM3 5.002v1h2v-1h1v-2H5a2 2 0 0 0-2 2zM8 3.002h3v2H8zM13 3.002h3v2h-3zM19 3.002h-1v2h1v1h2v-1a2 2 0 0 0-2-2zm-14 15H3v1c0 1.102.896 2 2 2h1v-2H5v-1zM8 19.002h3v2H8zM13 19.002h3v2h-3zM19 19.002h-1v2h1c1.104 0 2-.898 2-2v-1h-2v1zM3 13.002h2v3H3zM3 8.002h2v3H3zM19 13.002h2v3h-2zM19 8.002h2v3h-2z"/>
    </g>
</svg>
