<svg xmlns="http://www.w3.org/2000/svg" width="24" height="24" viewBox="0 0 24 24">
  <g fill="#757575">
    <path d="M20.372 19.059C21.062 18.418 21.501 17.513 21.501 16.5 21.501 14.57 19.931 13 18.001 13 16.071 13 14.501 14.57 14.501 16.5 14.501 17.513 14.94 18.418 15.63 19.059 14.152 19.593 13.001 20.621 13.001 22L15.001 22C15.001 21.402 16.414 20.643 18.001 20.643 19.588 20.643 21.001 21.403 21.001 22L23.001 22C23.001 20.62 21.85 19.593 20.372 19.059zM18.001 15C18.828 15 19.501 15.673 19.501 16.5 19.501 17.327 18.828 18 18.001 18 17.174 18 16.501 17.327 16.501 16.5 16.501 15.673 17.174 15 18.001 15zM8.372 19.059C9.062 18.418 9.501 17.513 9.501 16.5 9.501 14.57 7.931 13 6.001 13 4.071 13 2.501 14.57 2.501 16.5 2.501 17.513 2.94 18.418 3.63 19.059 2.152 19.593 1.001 20.62 1.001 22L3.001 22C3.001 21.402 4.414 20.643 6.001 20.643 7.588 20.643 9.001 21.403 9.001 22L11.001 22C11.001 20.62 9.85 19.593 8.372 19.059zM6.001 15C6.828 15 7.501 15.673 7.501 16.5 7.501 17.327 6.828 18 6.001 18 5.174 18 4.501 17.327 4.501 16.5 4.501 15.673 5.174 15 6.001 15zM15.001 11L17.001 11C17.001 9.62 15.85 8.593 14.372 8.059 15.062 7.418 15.501 6.513 15.501 5.5 15.501 3.57 13.931 2 12.001 2 10.071 2 8.501 3.57 8.501 5.5 8.501 6.513 8.94 7.418 9.63 8.059 8.152 8.593 7.001 9.62 7.001 11L9.001 11C9.001 10.402 10.414 9.643 12.001 9.643 13.588 9.643 15.001 10.402 15.001 11zM12.001 4C12.828 4 13.501 4.673 13.501 5.5 13.501 6.327 12.828 7 12.001 7 11.174 7 10.501 6.327 10.501 5.5 10.501 4.673 11.174 4 12.001 4z"/>
  </g>
</svg>
