<svg xmlns="http://www.w3.org/2000/svg" width="24" height="24" viewBox="0 0 24 24">
  <g fill="#757575">
    <path d="M12,0 C5.383,0 0,5.383 0,12 C0,18.617 5.383,24 12,24 C18.617,24 24,18.617 24,12 C24,5.383 18.617,0 12,0 Z M12,22 C6.486,22 2,17.514 2,12 C2,6.486 6.486,2 12,2 C17.514,2 22,6.486 22,12 C22,17.514 17.514,22 12,22 Z"/>
    <path d="M12,3 C7.037,3 3,7.037 3,12 C3,16.963 7.037,21 12,21 C16.963,21 21,16.963 21,12 C21,7.037 16.963,3 12,3 Z M12,19 C8.141,19 5,15.86 5,12 C5,8.14 8.141,5 12,5 C15.859,5 19,8.14 19,12 C19,15.86 15.859,19 12,19 Z"/>
    <polygon points="13.715 9.786 12 5.5 10.285 9.786 6 9.786 9.709 12.916 7.715 17.5 12 14.666 16.285 17.5 14.292 12.916 18 9.786"/>
  </g>
</svg>
