<svg xmlns="http://www.w3.org/2000/svg" width="24" height="24" viewBox="0 0 24 24">
  <path fill="#757575" d="M23.885,12.558 L23.895,12.553 L20.618,6 L22,6 L22,4 L13,4 L13,2 L11,2 L11,4 L2,4 L2,6 L3.382,6 L0.106,12.553 L0.116,12.558 C0.047,12.692 0,12.839 0,13 C0,15.757 2.243,18 5,18 C7.757,18 10,15.757 10,13 C10,12.839 9.953,12.692 9.885,12.558 L9.895,12.553 L6.618,6 L11,6 L11,20 L8,20 L8,22 L16,22 L16,20 L13,20 L13,6 L17.382,6 L14.106,12.553 L14.116,12.558 C14.047,12.692 14,12.839 14,13 C14,15.757 16.243,18 19,18 C21.757,18 24,15.757 24,13 C24,12.839 23.953,12.692 23.885,12.558 Z M5,7.236 L7.382,12 L2.618,12 L5,7.236 Z M5,16 C3.696,16 2.584,15.164 2.172,14 L7.828,14 C7.416,15.164 6.304,16 5,16 Z M21.382,12 L16.618,12 L19,7.236 L21.382,12 Z M19,16 C17.696,16 16.584,15.164 16.172,14 L21.828,14 C21.416,15.164 20.304,16 19,16 Z"/>
</svg>
