<svg xmlns="http://www.w3.org/2000/svg" width="24" height="24" viewBox="0 0 24 24">
  <path fill="#757575" d="M20,5 C20,3.346 18.654,2 17,2 C15.346,2 14,3.346 14,5 C14,6.302 14.838,7.401 16,7.815 L16,16.999 C16,17.551 15.551,17.999 15,17.999 C14.449,17.999 14,17.551 14,16.999 C14,15.345 12.654,13.999 11,13.999 C9.346,13.999 8,15.345 8,16.999 C8,17.275 7.775,17.499 7.5,17.499 C7.225,17.499 7,17.275 7,16.999 L7,13.91 C9.833,13.432 12,10.968 12,7.999 L12,2 C12,1.448 11.553,1 11,1 L9,1 L9,0 L7,0 L7,4 L9,4 L9,3 L10,3 L10,7.999 C10,10.206 8.205,11.999 6,11.999 C3.795,11.999 2,10.206 2,7.999 L2,3 L3,3 L3,4 L5,4 L5,0 L3,0 L3,1 L1,1 C0.447,1 0,1.448 0,2 L0,7.999 C0,10.967 2.167,13.432 5,13.91 L5,16.999 C5,18.378 6.121,19.499 7.5,19.499 C8.879,19.499 10,18.378 10,16.999 C10,16.449 10.449,15.999 11,15.999 C11.551,15.999 12,16.449 12,16.999 C12,18.654 13.346,19.999 15,19.999 C16.654,19.999 18,18.654 18,16.999 L18,7.815 C19.162,7.401 20,6.302 20,5 Z M17,5.999 C16.449,5.999 16,5.551 16,5 C16,4.449 16.449,4 17,4 C17.551,4 18,4.449 18,5 C18,5.551 17.551,5.999 17,5.999 Z" transform="translate(2 2)"/>
</svg>
