<svg xmlns="http://www.w3.org/2000/svg" width="24" height="24" viewBox="0 0 24 24">
  <g fill="#757575">
    <path d="M2 4C2.178 4 2.348 3.969 2.512 3.926L5.793 7.207 7.207 5.793 3.926 2.512C3.969 2.348 4 2.178 4 2 4 .896 3.105 0 2 0 .895 0 0 .896 0 2 0 3.104.895 4 2 4zM2 14C2.738 14 3.377 13.595 3.723 13L6 13 6 11 3.723 11C3.376 10.405 2.738 10 2 10 .895 10 0 10.896 0 12 0 13.104.895 14 2 14zM5.793 16.793L2.512 20.075C2.348 20.031 2.178 20 2 20 .895 20 0 20.896 0 22 0 23.104.895 24 2 24 3.105 24 4 23.104 4 22 4 21.823 3.969 21.652 3.926 21.488L7.207 18.206 5.793 16.793zM22 10C21.262 10 20.624 10.405 20.277 11L18 11 18 13 20.277 13C20.623 13.595 21.261 14 22 14 23.105 14 24 13.104 24 12 24 10.896 23.105 10 22 10zM18.207 7.207L21.488 3.926C21.652 3.969 21.822 4 22 4 23.105 4 24 3.104 24 2 24 .896 23.105 0 22 0 20.895 0 20 .896 20 2 20 2.178 20.031 2.348 20.074 2.512L16.793 5.793 18.207 7.207zM22 20C21.822 20 21.652 20.031 21.488 20.075L18.207 16.793 16.793 18.207 20.074 21.489C20.031 21.652 20 21.823 20 22 20 23.104 20.895 24 22 24 23.105 24 24 23.104 24 22 24 20.896 23.105 20 22 20zM15 5C15 3.346 13.654 2 12 2 10.346 2 9 3.346 9 5 9 6.654 10.346 8 12 8 13.654 8 15 6.654 15 5zM12 6C11.449 6 11 5.552 11 5 11 4.448 11.449 4 12 4 12.551 4 13 4.448 13 5 13 5.552 12.551 6 12 6zM17 13C17 10.243 14.757 8 12 8 9.243 8 7 10.243 7 13L7 16C7 16.552 7.447 17 8 17L9 17 9 21C9 21.552 9.447 22 10 22L14 22C14.553 22 15 21.552 15 21L15 17 16 17C16.553 17 17 16.552 17 16L17 13zM15 15L14 15C13.447 15 13 15.448 13 16L13 20 11 20 11 16C11 15.448 10.553 15 10 15L9 15 9 13C9 11.346 10.346 10 12 10 13.654 10 15 11.346 15 13L15 15z"/>
  </g>
</svg>
