<svg xmlns="http://www.w3.org/2000/svg" width="24" height="24" viewBox="0 0 24 24">
  <g fill="#757575">
    <path d="M18.001 15.65L18.001 17.679C19.242 18.032 20.001 18.492 20.001 18.999 20.001 20.104 16.42 20.999 12.001 20.999 7.582 20.999 4.001 20.104 4.001 18.999 4.001 18.492 4.76 18.031 6.001 17.679L6.001 15.649C2.993 16.363 1.001 17.595 1.001 19 1.001 21.21 5.926 23 12.001 23 18.075 23 23.001 21.21 23.001 19 23.001 17.595 21.009 16.363 18.001 15.65zM17.001 5C17.826 5 18.501 5.676 18.501 6.5 18.501 7.324 17.826 8 17.001 8 16.176 8 15.501 7.324 15.501 6.5 15.501 5.676 16.176 5 17.001 5zM19.001 15L15.001 15 15.001 11C15.001 9.896 15.897 9 17.001 9 18.105 9 19.001 9.896 19.001 11L19.001 15zM12.001 3C12.826 3 13.501 3.676 13.501 4.5 13.501 5.324 12.826 6 12.001 6 11.176 6 10.501 5.324 10.501 4.5 10.501 3.676 11.176 3 12.001 3zM14.001 13L10.001 13 10.001 9C10.001 7.896 10.897 7 12.001 7 13.105 7 14.001 7.896 14.001 9L14.001 13zM7.001 5C7.826 5 8.501 5.676 8.501 6.5 8.501 7.324 7.826 8 7.001 8 6.176 8 5.501 7.324 5.501 6.5 5.501 5.676 6.176 5 7.001 5zM9.001 15L5.001 15 5.001 11C5.001 9.896 5.897 9 7.001 9 8.105 9 9.001 9.896 9.001 11L9.001 15z"/>
  </g>
</svg>
