<svg xmlns="http://www.w3.org/2000/svg" width="24" height="24" viewBox="0 0 24 24">
  <g fill="#757575" transform="translate(5 2)">
    <path d="M14.5297342,18.6237984 L8.80822707,13.0088953 C9.92301445,12.0630097 10.5605177,10.7281772 10.5605177,9.27831568 C10.5605177,7.42626659 8.91953715,4.9568678 8.73233383,4.68129481 C8.59235296,4.47523573 8.36467324,4.34200074 8.11422554,4.31717435 C7.85956156,4.29483059 7.61333015,4.38089543 7.43455941,4.55550774 L6.34422651,5.62552538 L6.34422651,1.00285058 C6.34422651,0.654453497 6.12160634,0.34329601 5.78767608,0.224956859 C5.45458907,0.106617708 5.08102568,0.205095743 4.85334595,0.473220812 C4.67288869,0.685072718 0.44141888,5.70993513 0.44141888,9.27831568 C0.44141888,10.4559144 0.884972711,11.6070316 1.69112758,12.5173327 L1.69112758,12.5173327 C2.66087455,13.6146594 4.04803434,14.2435947 5.50096828,14.2435947 C6.13003892,14.2435947 6.74055788,14.1136699 7.32071954,13.8902324 L13.337367,19.7939492 L14.5297342,18.6237984 Z M2.96444751,11.4332468 C2.58245153,11.0012675 2.12793535,10.2771643 2.12793535,9.27831568 C2.12793535,7.61246455 3.45269403,5.26306001 4.65771004,3.50783386 L4.65771004,7.62322266 C4.65771004,7.95755145 4.86346505,8.25960592 5.17800037,8.38787563 C5.49422221,8.51531779 5.85597999,8.44497634 6.09715185,8.20747049 L7.86293459,6.47541565 C8.3351592,7.32199573 8.87400121,8.48056084 8.87400121,9.27831568 C8.87400121,10.3309548 8.36973279,11.2991843 7.48937119,11.93474 C6.09377882,12.9435192 4.09188377,12.708496 2.96444751,11.4332468 L2.96444751,11.4332468 Z"/>
    <path d="M5.50096828,9.27831568 C4.60964433,9.27831568 3.78578103,9.55388866 3.10358512,10.0197973 C3.2292306,10.3897106 3.42233673,10.6867998 3.60195074,10.8912038 C3.75711025,11.0674712 3.9417838,11.206499 4.13910623,11.330631 C4.53375108,11.0815395 4.99838637,10.9334087 5.50096828,10.9334087 C6.00945299,10.9334087 6.48083434,11.0840222 6.87716571,11.3372514 C7.39070998,11.0128532 7.72211046,10.5577026 7.89835143,10.0189698 C7.21699878,9.55388866 6.39229223,9.27831568 5.50096828,9.27831568 Z"/>
  </g>
</svg>
