<svg xmlns="http://www.w3.org/2000/svg" width="24" height="24" viewBox="0 0 24 24">
  <path fill="#757575" d="M22.768,7.359 C22.578,7.132 22.297,7 22,7 L16,7 L16,3 C16,2.448 15.553,2 15,2 L12,2 C11.6,2 11.238,2.238 11.081,2.605 L8.341,9 L8,9 C8,8.448 7.553,8 7,8 L3,8 C2.447,8 2,8.448 2,9 L2,19 C2,19.552 2.447,20 3,20 L7,20 C7.553,20 8,19.552 8,19 L8,18.478 L11.629,19.929 C11.746,19.976 11.873,20 12,20 L20,20 C20.483,20 20.897,19.654 20.984,19.179 L22.984,8.179 C23.037,7.887 22.957,7.587 22.768,7.359 Z M6,18 L4,18 L4,10 L6,10 L6,18 Z M19.166,18 L12.192,18 L8,16.323 L8,11 L9,11 C9.4,11 9.762,10.762 9.919,10.394 L12.659,4 L14,4 L14,8 C14,8.552 14.447,9 15,9 L20.802,9 L19.166,18 Z"/>
</svg>
