<svg xmlns="http://www.w3.org/2000/svg" width="24" height="24" viewBox="0 0 24 24">
  <g fill="#757575">
    <path d="M21,3 L18,3 L18,1 L16,1 L16,7 L18,7 L18,5 L21,5 L21,20 L3,20 L3,5 L5,5 L5,3 L3,3 C1.896,3 1,3.895 1,5 L1,20 C1,21.104 1.896,22 3,22 L21,22 C22.104,22 23,21.104 23,20 L23,5 C23,3.895 22.104,3 21,3 Z"/>
    <polygon points="8 5 15 5 15 3 8 3 8 1 6 1 6 7 8 7"/>
    <rect width="4" height="4" x="5" y="9"/>
    <rect width="4" height="4" x="10" y="9"/>
    <rect width="4" height="4" x="15" y="9"/>
    <rect width="4" height="4" x="5" y="14"/>
    <rect width="4" height="4" x="10" y="14"/>
  </g>
</svg>
