<svg xmlns="http://www.w3.org/2000/svg" width="24" height="24" viewBox="0 0 24 24">
  <g fill="#757575" transform="translate(2 3)">
    <path d="M17.615.211911004C17.372.0229110035 17.054-.0450889965 16.758.0299110035L4.877 3.000911 2 3.000911C.896 3.000911 0 3.896911 0 5.000911L0 9.000911C0 10.102911.896 11.000911 2 11.000911L4 11.000911 4 13.000911C4 13.217911 4.07 13.426911 4.2 13.600911L7.2 17.600911 8.8 16.400911 6 12.666911 6 11.281911 16.758 13.970911C16.838 13.990911 16.919 14.000911 17 14.000911 17.221 14.000911 17.438 13.926911 17.615 13.787911 17.857 13.598911 18 13.308911 18 13.000911L18 1.000911C18 .691911004 17.857.400911004 17.615.211911004zM2 5.000911L4 5.000911 4 9.000911 2 9.000911 2 5.000911zM16 11.719911L6 9.219911 6 4.781911 16 2.281911 16 11.719911zM19 4L19 9.631C20.162 9.217 21 8.117 21 6.817 21 5.513 20.162 4.414 19 4z"/>
  </g>
</svg>
