<svg xmlns="http://www.w3.org/2000/svg" width="24" height="24" viewBox="0 0 24 24">
  <g fill="#757575" transform="translate(4 1)">
    <path d="M8 9C6.346 9 5 7.654 5 6L3 6C3 8.757 5.243 11 8 11 10.757 11 13 8.757 13 6L11 6C11 7.654 9.654 9 8 9zM8 6C8.883 6 9.67 5.609 10.22 5L14 5 14 3 11 3C11 1.346 9.654 0 8 0 6.346 0 5 1.346 5 3L2 3 2 5 5.78 5C6.33 5.609 7.117 6 8 6zM8 2C8.551 2 9 2.449 9 3 9 3.551 8.551 4 8 4 7.449 4 7 3.551 7 3 7 2.449 7.449 2 8 2z"/>
    <polygon points="11 16 9 16 9 18 7 18 7 20 9 20 9 22 11 22 11 20 13 20 13 18 11 18"/>
    <path d="M8,12 C3.289,12 0,14.467 0,18 L0,22 L6,22 L6,20 L2,20 L2,18 C2,15.645 4.467,14 8,14 C11.533,14 14,15.645 14,18 L14,22 L16,22 L16,18 C16,14.467 12.711,12 8,12 Z"/>
  </g>
</svg>
