<svg xmlns="http://www.w3.org/2000/svg" width="24" height="24" viewBox="0 0 24 24">
  <g fill="#757575">
    <polygon points="13 13.588 13 7.002 11 7.002 11 13.588 8.707 11.295 7.293 12.709 12 17.416 16.707 12.709 15.293 11.295"/>
    <path d="M3,5.002 L3,6.002 L5,6.002 L5,5.002 L6,5.002 L6,3.002 L5,3.002 C3.896,3.002 3,3.898 3,5.002 Z"/>
    <rect width="3" height="2" x="8" y="3.002"/>
    <rect width="3" height="2" x="13" y="3.002"/>
    <path d="M19 3.002L18 3.002 18 5.002 19 5.002 19 6.002 21 6.002 21 5.002C21 3.898 20.104 3.002 19 3.002zM5 18.002L3 18.002 3 19.002C3 20.104 3.896 21.002 5 21.002L6 21.002 6 19.002 5 19.002 5 18.002z"/>
    <rect width="3" height="2" x="8" y="19.002"/>
    <rect width="3" height="2" x="13" y="19.002"/>
    <path d="M19,19.002 L18,19.002 L18,21.002 L19,21.002 C20.104,21.002 21,20.104 21,19.002 L21,18.002 L19,18.002 L19,19.002 Z"/>
    <rect width="2" height="3" x="3" y="13.002"/>
    <rect width="2" height="3" x="3" y="8.002"/>
    <rect width="2" height="3" x="19" y="13.002"/>
    <rect width="2" height="3" x="19" y="8.002"/>
  </g>
</svg>
