<svg xmlns="http://www.w3.org/2000/svg" width="24" height="24" viewBox="0 0 24 24">
  <g fill="#757575">
    <polygon points="14.001 2 14.001 4 18.587 4 3.294 19.293 4.708 20.707 20.001 5.414 20.001 10 22.001 10 22.001 2"/>
    <polygon points="3.708 9.707 6.001 7.414 8.294 9.707 9.708 8.293 7.415 6 9.708 3.707 8.294 2.293 6.001 4.586 3.708 2.293 2.294 3.707 4.587 6 2.294 8.293"/>
    <path d="M17.501,13 C15.02,13 13.001,15.019 13.001,17.5 C13.001,19.981 15.02,22 17.501,22 C19.982,22 22.001,19.981 22.001,17.5 C22.001,15.019 19.982,13 17.501,13 Z M17.501,20 C16.123,20 15.001,18.879 15.001,17.5 C15.001,16.121 16.123,15 17.501,15 C18.879,15 20.001,16.121 20.001,17.5 C20.001,18.879 18.879,20 17.501,20 Z"/>
  </g>
</svg>
