<svg xmlns="http://www.w3.org/2000/svg" width="24" height="24" viewBox="0 0 24 24">
  <g fill="#757575">
    <path d="M8.555 19C9.248 20.19 10.524 21 12 21 13.476 21 14.752 20.19 15.445 19L8.555 19zM21 18L3 18 3 15.279 3.684 15.052C5.069 14.589 6 13.298 6 11.838L6 9C6 5.691 8.691 3 12 3 15.309 3 18 5.691 18 9L18 11.838C18 13.298 18.931 14.589 20.316 15.052L21 15.279 21 18zM6.035 16L17.966 16C16.745 14.998 16 13.486 16 11.838L16 9C16 6.794 14.206 5 12 5 9.794 5 8 6.794 8 9L8 11.838C8 13.486 7.255 14.998 6.035 16z"/>
  </g>
</svg>
