<svg xmlns="http://www.w3.org/2000/svg" width="24" height="24" viewBox="0 0 24 24">
  <g fill="#757575">
    <path d="M15.001,17 C14.849,17 14.695,16.965 14.554,16.895 C14.215,16.726 14.001,16.379 14.001,16 L14.001,14 L13.001,14 L13.001,12 L15.001,12 C15.553,12 16.001,12.448 16.001,13 L16.001,14 L18.401,12.2 C18.574,12.07 18.785,12 19.001,12 C20.655,12 22.001,10.654 22.001,9 L22.001,7 C22.001,5.346 20.655,4 19.001,4 L13.001,4 C11.664,4 10.476,4.898 10.114,6.184 L8.189,5.641 C8.793,3.497 10.772,2 13.001,2 L19.001,2 C21.758,2 24.001,4.243 24.001,7 L24.001,9 C24.001,11.64 21.945,13.809 19.351,13.988 L15.601,16.8 C15.424,16.932 15.213,17 15.001,17 Z"/>
    <path d="M8.001 16C5.795 16 4.001 14.206 4.001 12 4.001 9.795 5.795 8 8.001 8 10.207 8 12.001 9.795 12.001 12 12.001 14.206 10.207 16 8.001 16zM8.001 10C6.898 10 6.001 10.896 6.001 12 6.001 13.103 6.898 14 8.001 14 9.104 14 10.001 13.103 10.001 12 10.001 10.896 9.104 10 8.001 10zM16.001 24L.001 24 .001 23C.001 19.467 3.291 17 8.001 17 12.711 17 16.001 19.467 16.001 23L16.001 24zM2.16 22L13.843 22C13.245 20.192 11.01 19 8.002 19 4.994 19 2.758 20.192 2.16 22z"/>
  </g>
</svg>
