<svg xmlns="http://www.w3.org/2000/svg" width="24" height="24" viewBox="0 0 24 24">
  <g fill="#757575" transform="translate(2 2)">
    <path d="M5 0L1 0C.448 0 0 .448 0 1L0 5C0 5.552.448 6 1 6L5 6C5.553 6 6 5.552 6 5L6 1C6 .448 5.553 0 5 0zM4 4L2 4 2 2 4 2 4 4zM5 7L1 7C.448 7 0 7.448 0 8L0 12C0 12.552.448 13 1 13L5 13C5.553 13 6 12.552 6 12L6 8C6 7.448 5.553 7 5 7zM4 11L2 11 2 9 4 9 4 11zM5 14L1 14C.448 14 0 14.448 0 15L0 19C0 19.552.448 20 1 20L5 20C5.553 20 6 19.552 6 19L6 15C6 14.448 5.553 14 5 14zM4 18L2 18 2 16 4 16 4 18z"/>
    <rect width="12" height="2" x="8" y="2"/>
    <rect width="12" height="2" x="8" y="9"/>
    <rect width="12" height="2" x="8" y="16"/>
  </g>
</svg>
