<svg xmlns="http://www.w3.org/2000/svg" width="24" height="24" viewBox="0 0 24 24">
  <g fill="#757575" transform="translate(2 3)">
    <rect width="2" height="8.602" x="3.5" y="6.199" transform="rotate(-54.471 4.5 10.5)"/>
    <path d="M18.178,9.653 L6.401,0.803 C5.98,0.486 5.44,0.345 4.919,0.421 C4.397,0.495 3.917,0.778 3.6,1.201 L1.808,3.589 C1.489,4.015 1.352,4.561 1.431,5.086 C1.511,5.613 1.803,6.094 2.232,6.406 L12.056,13.55 C12.129,14.074 12.301,14.561 12.557,15 L0,15 L0,17 L16,17 C18.206,17 20,15.206 20,13 C20,11.599 19.272,10.368 18.178,9.653 Z M5.199,2.402 L14.418,9.329 C13.519,9.718 12.798,10.431 12.384,11.316 L3.408,4.79 L5.199,2.402 Z M16,15 C14.897,15 14,14.103 14,13 C14,11.898 14.897,11 16,11 C17.103,11 18,11.898 18,13 C18,14.103 17.103,15 16,15 Z"/>
  </g>
</svg>
